<?xml version="1.0" standalone="no"?>
<!DOCTYPE svg PUBLIC "-//W3C//DTD SVG 20010904//EN"
 "http://www.w3.org/TR/2001/REC-SVG-20010904/DTD/svg10.dtd">
<svg version="1.0" xmlns="http://www.w3.org/2000/svg"
 width="512.000000pt" height="512.000000pt" viewBox="0 0 512.000000 512.000000"
 preserveAspectRatio="xMidYMid meet">
<metadata>
Created by potrace 1.14, written by Peter Selinger 2001-2017
</metadata>
<g transform="translate(0.000000,512.000000) scale(0.100000,-0.100000)"
fill="#000000" stroke="none">
<path d="M1865 4941 c-56 -26 -96 -72 -110 -128 -18 -69 -9 -105 53 -213 30
-52 122 -211 204 -353 82 -142 151 -263 154 -270 3 -10 -24 -13 -118 -14 -139
0 -178 -12 -232 -67 -99 -102 -76 -280 44 -347 14 -8 43 -19 64 -24 l40 -11
-80 -33 c-415 -173 -761 -458 -999 -824 -236 -363 -331 -833 -250 -1240 21
-107 21 -106 49 -192 58 -174 157 -347 286 -500 58 -70 94 -105 220 -215 46
-41 192 -131 289 -180 88 -44 270 -111 338 -125 73 -15 143 -27 193 -33 76
-10 1039 -9 1124 1 110 13 303 66 421 116 64 27 200 100 260 139 238 155 449
401 566 659 60 130 107 302 125 453 10 87 7 318 -6 395 -6 39 -13 81 -15 95
-6 35 -11 58 -25 110 -7 25 -13 52 -15 60 -9 47 -84 229 -132 320 -49 93 -118
206 -133 220 -3 3 -17 21 -30 40 -69 102 -232 269 -367 377 -164 130 -389 263
-568 334 -58 23 -59 23 -30 30 72 16 113 45 153 111 63 102 22 242 -89 303
-47 25 -60 27 -175 29 -68 0 -124 3 -124 6 0 3 23 43 50 89 28 46 50 85 50 87
0 2 23 43 52 91 152 257 268 470 270 492 6 105 -31 173 -117 212 -37 17 -85
18 -695 18 -612 0 -658 -1 -695 -18z"/>
</g>
</svg>
